<?xml version="1.0" encoding="UTF-8" standalone="no"?> <svg width="512" height="512" viewBox="0 0 512 512" fill="none" xmlns="http://www.w3.org/2000/svg">
<path d="M384 272H360V288H384C402.987 288 421.548 293.63 437.335 304.179C453.122 314.728 465.426 329.721 472.692 347.262C479.958 364.804 481.86 384.106 478.155 402.729C474.451 421.351 465.308 438.456 451.882 451.882C438.456 465.308 421.351 474.451 402.729 478.155C384.106 481.86 364.804 479.958 347.262 472.692C329.721 465.426 314.728 453.122 304.179 437.335C293.63 421.548 288 402.987 288 384V328H272V384C272 406.152 278.569 427.806 290.875 446.224C303.182 464.642 320.674 478.998 341.139 487.475C361.605 495.952 384.124 498.17 405.85 493.848C427.576 489.526 447.532 478.859 463.196 463.196C478.859 447.532 489.526 427.576 493.848 405.85C498.17 384.124 495.952 361.605 487.475 341.139C478.998 320.674 464.642 303.182 446.224 290.875C427.806 278.569 406.152 272 384 272Z" fill="black"/>
<path d="M224 384C224 402.987 218.37 421.548 207.821 437.335C197.273 453.122 182.279 465.426 164.738 472.692C147.196 479.958 127.894 481.86 109.271 478.155C90.6492 474.451 73.5436 465.308 60.1178 451.882C46.692 438.456 37.5488 421.351 33.8447 402.729C30.1405 384.106 32.0416 364.804 39.3076 347.262C46.5736 329.721 58.8782 314.728 74.6653 304.179C90.4524 293.63 109.013 288 128 288H152V272H128C105.849 272 84.1945 278.569 65.7762 290.875C47.3579 303.182 33.0026 320.674 24.5255 341.139C16.0485 361.605 13.8306 384.124 18.1521 405.85C22.4736 427.576 33.1406 447.532 48.8041 463.196C64.4676 478.859 84.4241 489.526 106.15 493.848C127.876 498.17 150.395 495.952 170.861 487.475C191.326 478.998 208.818 464.642 221.125 446.224C233.431 427.806 240 406.152 240 384V328H224V384Z" fill="black"/>
<path d="M128 240H168V224H128C109.013 224 90.4524 218.37 74.6653 207.821C58.8782 197.273 46.5736 182.279 39.3076 164.738C32.0416 147.196 30.1405 127.894 33.8447 109.271C37.5488 90.6492 46.692 73.5436 60.1178 60.1178C73.5436 46.692 90.6492 37.5488 109.271 33.8447C127.894 30.1405 147.196 32.0416 164.738 39.3076C182.279 46.5736 197.273 58.8782 207.821 74.6653C218.37 90.4524 224 109.013 224 128V184H240V128C240 105.849 233.431 84.1945 221.125 65.7762C208.818 47.3579 191.326 33.0026 170.861 24.5255C150.395 16.0485 127.876 13.8306 106.15 18.1521C84.4241 22.4736 64.4676 33.1406 48.8041 48.8041C33.1406 64.4676 22.4736 84.4241 18.1521 106.15C13.8306 127.876 16.0485 150.395 24.5255 170.861C33.0026 191.326 47.3579 208.818 65.7762 221.125C84.1945 233.431 105.849 240 128 240V240Z" fill="black"/>
<path d="M288 128C288 109.013 293.63 90.4524 304.179 74.6653C314.728 58.8782 329.721 46.5736 347.262 39.3076C364.804 32.0416 384.106 30.1405 402.729 33.8447C421.351 37.5488 438.456 46.692 451.882 60.1178C465.308 73.5436 474.451 90.6492 478.155 109.271C481.86 127.894 479.958 147.196 472.692 164.738C465.426 182.279 453.122 197.273 437.335 207.821C421.548 218.37 402.987 224 384 224H344V240H384C406.152 240 427.806 233.431 446.224 221.125C464.642 208.818 478.998 191.326 487.475 170.861C495.952 150.395 498.17 127.876 493.848 106.15C489.526 84.4241 478.859 64.4676 463.196 48.8041C447.532 33.1406 427.576 22.4736 405.85 18.1521C384.124 13.8306 361.605 16.0485 341.139 24.5255C320.674 33.0026 303.182 47.3579 290.875 65.7762C278.569 84.1945 272 105.849 272 128V184H288V128Z" fill="black"/>
<path d="M280 296C280.005 290.445 278.074 285.061 274.539 280.776L312.22 243.094C322.444 255.827 328.012 271.67 328 288H296V304H344V288C344.019 267.426 336.795 247.501 323.595 231.719L333.657 221.657L322.343 210.343L312.281 220.405C299.437 209.695 283.807 202.868 267.221 200.725C250.635 198.582 233.783 201.212 218.639 208.307C203.495 215.402 190.688 226.667 181.719 240.782C172.75 254.897 167.991 271.277 168 288V304H216V288H184C183.988 271.67 189.556 255.827 199.78 243.094L210.343 253.657L221.657 242.343L211.094 231.78C221.694 223.275 234.494 217.96 248 216.455V232H264V216.455C277.506 217.96 290.306 223.275 300.906 231.78L260.294 272.392C255.443 271.511 250.438 272.145 245.961 274.208C241.483 276.271 237.749 279.663 235.268 283.923C232.786 288.183 231.676 293.104 232.09 298.017C232.504 302.93 234.421 307.596 237.58 311.381C240.74 315.166 244.988 317.886 249.748 319.171C254.508 320.456 259.548 320.243 264.183 318.563C268.818 316.882 272.822 313.815 275.653 309.778C278.483 305.741 280.001 300.93 280 296V296ZM256 304C254.418 304 252.871 303.531 251.555 302.652C250.24 301.773 249.214 300.523 248.609 299.062C248.003 297.6 247.845 295.991 248.154 294.439C248.462 292.887 249.224 291.462 250.343 290.343C251.462 289.224 252.887 288.462 254.439 288.154C255.991 287.845 257.6 288.004 259.061 288.609C260.523 289.215 261.773 290.24 262.652 291.556C263.531 292.871 264 294.418 264 296C263.998 298.121 263.154 300.154 261.654 301.654C260.154 303.154 258.121 303.998 256 304V304Z" fill="black"/>
<path d="M448 344V328H320V344H328V416H320V432H448V416H440V344H448ZM424 416H344V344H424V416Z" fill="black"/>
<path d="M376 360H360V400H376V360Z" fill="black"/>
<path d="M408 360H392V400H408V360Z" fill="black"/>
<path d="M325.657 197.657L339.706 183.608C341.123 183.867 342.56 183.998 344 184H424C430.363 183.993 436.463 181.462 440.963 176.963C445.462 172.463 447.993 166.363 448 160V112C447.995 107.294 446.608 102.692 444.012 98.767C441.416 94.8415 437.725 91.7645 433.396 89.9177L445.657 77.6567L434.343 66.3433L412.686 88H408V80C408 73.6348 405.471 67.5303 400.971 63.0294C396.47 58.5286 390.365 56 384 56C377.635 56 371.53 58.5286 367.029 63.0294C362.529 67.5303 360 73.6348 360 80V88H344C337.637 88.0073 331.537 90.5382 327.037 95.0375C322.538 99.5368 320.007 105.637 320 112V160C319.995 165.555 321.926 170.939 325.461 175.224L314.343 186.343L325.657 197.657ZM424 168H355.314L382.643 140.671C383.096 140.675 383.548 140.688 384 140.688C400.394 140.694 416.654 137.743 432 131.976V160C431.998 162.121 431.154 164.154 429.654 165.654C428.154 167.154 426.121 167.998 424 168ZM424 104C426.121 104.002 428.154 104.846 429.654 106.346C431.154 107.846 431.998 109.879 432 112V114.725L431.271 115.038C421.174 119.356 410.53 122.262 399.64 123.674L419.314 104H424ZM376 80C376 77.8783 376.843 75.8434 378.343 74.3431C379.843 72.8429 381.878 72 384 72C386.122 72 388.157 72.8429 389.657 74.3431C391.157 75.8434 392 77.8783 392 80V88H376V80ZM344 104H396.686L376.249 124.436C362.637 123.576 349.272 120.397 336.729 115.038L336 114.725V112C336.002 109.879 336.846 107.846 338.346 106.346C339.846 104.846 341.879 104.002 344 104V104ZM336 160V131.976C344.357 135.119 353.004 137.429 361.815 138.871L336.937 163.749C336.321 162.595 335.999 161.308 336 160V160Z" fill="black"/>
<path d="M189.47 344.411L170.161 350.847L141.078 321.764L122.584 368H107.719L89.3442 395.563L102.656 404.438L116.281 384H133.416L146.922 350.236L165.839 369.153L194.53 359.589L189.47 344.411Z" fill="black"/>
<path d="M64 328V432H192V416H80V328H64Z" fill="black"/>
<path d="M64 154.038V184H209.062L199.062 104H192V96C192 89.6348 189.471 83.5303 184.971 79.0294C180.47 74.5286 174.365 72 168 72C161.635 72 155.53 74.5286 151.029 79.0294C146.529 83.5303 144 89.6348 144 96V104H136.938L133.188 133.998C132.309 133.414 131.393 132.89 130.444 132.429L115.668 125.287L124.102 112.355C126.649 108.457 128.003 103.9 128 99.2437V96C128 89.6348 125.471 83.5303 120.971 79.0294C116.47 74.5286 110.365 72 104 72C97.6348 72 91.5303 74.5286 87.0294 79.0294C82.5286 83.5303 80 89.6348 80 96V99.2437C79.9965 103.9 81.351 108.456 83.8975 112.354L92.332 125.287L77.5556 132.429C73.5033 134.405 70.0856 137.477 67.6897 141.296C65.2938 145.115 64.0156 149.529 64 154.038V154.038ZM145.062 168L151.062 120H184.938L190.938 168H145.062ZM160 96C160 93.8783 160.843 91.8434 162.343 90.3431C163.843 88.8429 165.878 88 168 88C170.122 88 172.157 88.8429 173.657 90.3431C175.157 91.8434 176 93.8783 176 96V104H160V96ZM96 96C96 93.8783 96.8429 91.8434 98.3431 90.3431C99.8434 88.8429 101.878 88 104 88C106.122 88 108.157 88.8429 109.657 90.3431C111.157 91.8434 112 93.8783 112 96V99.2437C112.001 100.796 111.55 102.315 110.7 103.614L104 113.888L97.2988 103.612C96.4501 102.313 95.9987 100.795 96 99.2437V96ZM80 154.038C80.0052 152.535 80.4312 151.063 81.2298 149.79C82.0285 148.517 83.1677 147.493 84.5185 146.834L104 137.418L123.481 146.835C124.832 147.494 125.972 148.517 126.77 149.79C127.569 151.063 127.995 152.535 128 154.038V168H80V154.038Z" fill="black"/>
</svg>
