<?xml version="1.0" encoding="UTF-8"?>
<!DOCTYPE svg PUBLIC "-//W3C//DTD SVG 1.1//EN" "http://www.w3.org/Graphics/SVG/1.1/DTD/svg11.dtd">
<!-- Creator: CorelDRAW -->
<svg xmlns="http://www.w3.org/2000/svg" xml:space="preserve" width="1.70666in" height="1.70666in" version="1.1" style="shape-rendering:geometricPrecision; text-rendering:geometricPrecision; image-rendering:optimizeQuality; fill-rule:evenodd; clip-rule:evenodd"
viewBox="0 0 1707 1707"
 xmlns:xlink="http://www.w3.org/1999/xlink">
 <defs>
  <style type="text/css">
   <![CDATA[
    .fil0 {fill:black}
   ]]>
  </style>
 </defs>
 <g id="Layer_x0020_1">
  <metadata id="CorelCorpID_0Corel-Layer"/>
  <path class="fil0" d="M1463 1422c-65,0 -118,-52 -118,-117 0,-65 53,-118 118,-118 64,0 117,53 117,118 0,65 -53,117 -117,117zm0 285c-7,0 -14,-3 -19,-8 -111,-111 -184,-268 -184,-399 0,-111 91,-202 202,-202 111,0 202,91 202,202 0,131 -72,288 -183,399 -5,5 -11,8 -18,8zm0 -556c-82,0 -149,67 -149,149 0,111 58,242 149,342 91,-100 148,-232 148,-342 0,-82 -66,-149 -148,-149zm-299 220l-871 0c-138,0 -251,-112 -251,-251l0 -78c0,-139 113,-251 251,-251l198 0 0 -242c0,-14 12,-26 27,-26l672 0c14,0 26,12 26,26l0 242 197 0c109,0 198,-89 198,-198l0 -79c0,-109 -89,-198 -198,-198l-869 0c-35,0 -35,-53 0,-53l869 0c139,0 251,113 251,251l0 79c0,138 -112,251 -251,251l-197 0 0 276c0,14 -12,26 -26,26l-672 0c-15,0 -27,-12 -27,-26l0 -276 -198 0c-109,0 -198,89 -198,198l0 78c0,109 89,198 198,198l871 0c35,0 35,53 0,53zm-202 -329l-216 0c-35,0 -35,-53 0,-53l216 0c34,0 35,53 0,53zm0 -112l-216 0c-35,0 -35,-53 0,-53l216 0c34,0 35,53 0,53zm0 -112l-216 0c-35,0 -35,-53 0,-53l216 0c34,0 35,53 0,53zm15 -105l-246 0c-15,0 -27,-12 -27,-26l0 -111 -160 0 0 517 619 0 0 -517 -160 0 0 111c0,15 -11,26 -26,26zm-220 -53l193 0 0 -84 -193 0 0 84zm-509 -336c-65,0 -117,-53 -117,-118 0,-64 52,-117 117,-117 65,0 117,53 117,117 0,65 -52,118 -117,118zm0 -182c-85,0 -85,129 0,129 85,0 85,-129 0,-129zm0 466c-7,0 -14,-2 -19,-7 -111,-111 -183,-268 -183,-399 0,-111 91,-202 202,-202 111,0 202,91 202,202 0,131 -72,288 -183,399 -5,5 -12,7 -19,7zm0 -555c-82,0 -149,67 -149,149 0,110 58,242 149,341 91,-99 149,-231 149,-341 0,-82 -67,-149 -149,-149zm1215 1187c-85,0 -85,129 0,129 84,0 84,-129 0,-129z"/>
 </g>
</svg>
